<svg width="2754" height="1536" viewBox="0 0 2754 1536" fill="none" xmlns="http://www.w3.org/2000/svg">
<g opacity="0.25" filter="url(#filter0_d_2528_617)">
<path d="M910.966 426.444L632.581 467.638C624.904 468.774 617.263 465.366 612.978 458.896L567.517 390.24C553.724 369.41 534.948 352.355 512.892 340.623L345.294 251.476C339.882 248.597 338.31 241.571 341.98 236.66L370.5 198.5H1250.73C1268.52 198.5 1282.4 213.898 1280.57 231.596L1231.29 706.596C1229.71 721.884 1216.82 733.5 1201.45 733.5H897.48C877.79 733.5 863.439 714.853 868.48 695.819L933.227 451.349C936.905 437.462 925.177 424.341 910.966 426.444Z" fill="#299999"/>
</g>
<g opacity="0.25" filter="url(#filter1_d_2528_617)">
<path d="M2020.85 684.331L1819.83 292.798C1816.57 286.462 1820.8 278.853 1827.9 278.265L2185.14 248.649C2193.93 247.92 2202.6 251.096 2208.83 257.333L2642.65 691.146C2648.84 697.341 2644.64 707.943 2635.88 708.212L2089.88 725.04C2060.94 725.932 2034.07 710.087 2020.85 684.331Z" fill="#DF04B0"/>
</g>
<g opacity="0.25" filter="url(#filter2_d_2528_617)">
<path d="M1901.15 563.5H1312.61C1295.06 563.5 1281.25 548.495 1282.72 531.002L1308.05 227.86C1309.41 211.56 1323.58 199.355 1339.9 200.422L1599.51 217.396C1708.94 224.55 1805.75 290.846 1851.98 390.292L1919.28 535.069C1925.45 548.326 1915.77 563.5 1901.15 563.5Z" fill="#D3C100"/>
</g>
<g opacity="0.25" filter="url(#filter3_d_2528_617)">
<path d="M1147.28 1271.72L1241.99 779.933C1244.63 766.216 1256.39 756.138 1270.35 755.627L2022.73 728.078C2032.6 727.716 2042.02 732.24 2047.91 740.173L2264.96 1032.49C2274.33 1045.11 2266.15 1063.11 2250.48 1064.35L2088.91 1077.12C2064.73 1079.03 2040.86 1083.87 2017.85 1091.53L1788 1168L1575.45 1256.59C1523.2 1278.37 1467.62 1291.12 1411.1 1294.29L1178.42 1307.34C1158.91 1308.44 1143.58 1290.9 1147.28 1271.72Z" fill="#28DF03"/>
</g>
<g opacity="0.25" filter="url(#filter4_d_2528_617)">
<path d="M848.188 723.359L900.348 527.267C904.001 513.535 892.547 500.466 878.448 502.234C744.663 519.006 661.195 529.599 535.5 630.5C486.488 679.086 464.749 712.258 453.795 756.423C447.156 783.192 433.862 808.291 412.045 825.163C323.667 893.509 278.151 939.363 209.356 1011.26C203.809 1017.06 198.964 1023.52 194.997 1030.49C143.696 1120.69 117.142 1181.89 90.7952 1264.26C79.2219 1300.45 97.6431 1340 134.156 1350.49C221.699 1375.64 290.714 1366.88 398.5 1352C550.607 1315.28 635.305 1300.1 785.5 1284.5C902.647 1280.29 974.502 1283.63 1072.28 1311.6C1098.31 1319.05 1125 1300.31 1125.87 1273.25C1131.9 1086.2 1151.45 965.869 1211.54 788.653C1218.2 769.023 1203.72 748.5 1183 748.5H867.515C854.38 748.5 844.811 736.053 848.188 723.359Z" fill="#E20202"/>
</g>
<defs>
<filter id="filter0_d_2528_617" x="335.988" y="194.5" width="948.742" height="543" filterUnits="userSpaceOnUse" color-interpolation-filters="sRGB">
<feFlood flood-opacity="0" result="BackgroundImageFix"/>
<feColorMatrix in="SourceAlpha" type="matrix" values="0 0 0 0 0 0 0 0 0 0 0 0 0 0 0 0 0 0 127 0" result="hardAlpha"/>
<feOffset/>
<feGaussianBlur stdDeviation="2"/>
<feComposite in2="hardAlpha" operator="out"/>
<feColorMatrix type="matrix" values="0 0 0 0 1 0 0 0 0 1 0 0 0 0 1 0 0 0 1 0"/>
<feBlend mode="normal" in2="BackgroundImageFix" result="effect1_dropShadow_2528_617"/>
<feBlend mode="normal" in="SourceGraphic" in2="effect1_dropShadow_2528_617" result="shape"/>
</filter>
<filter id="filter1_d_2528_617" x="1814.71" y="244.546" width="834.879" height="484.529" filterUnits="userSpaceOnUse" color-interpolation-filters="sRGB">
<feFlood flood-opacity="0" result="BackgroundImageFix"/>
<feColorMatrix in="SourceAlpha" type="matrix" values="0 0 0 0 0 0 0 0 0 0 0 0 0 0 0 0 0 0 127 0" result="hardAlpha"/>
<feOffset/>
<feGaussianBlur stdDeviation="2"/>
<feComposite in2="hardAlpha" operator="out"/>
<feColorMatrix type="matrix" values="0 0 0 0 1 0 0 0 0 1 0 0 0 0 1 0 0 0 1 0"/>
<feBlend mode="normal" in2="BackgroundImageFix" result="effect1_dropShadow_2528_617"/>
<feBlend mode="normal" in="SourceGraphic" in2="effect1_dropShadow_2528_617" result="shape"/>
</filter>
<filter id="filter2_d_2528_617" x="1278.61" y="196.357" width="646.562" height="371.143" filterUnits="userSpaceOnUse" color-interpolation-filters="sRGB">
<feFlood flood-opacity="0" result="BackgroundImageFix"/>
<feColorMatrix in="SourceAlpha" type="matrix" values="0 0 0 0 0 0 0 0 0 0 0 0 0 0 0 0 0 0 127 0" result="hardAlpha"/>
<feOffset/>
<feGaussianBlur stdDeviation="2"/>
<feComposite in2="hardAlpha" operator="out"/>
<feColorMatrix type="matrix" values="0 0 0 0 1 0 0 0 0 1 0 0 0 0 1 0 0 0 1 0"/>
<feBlend mode="normal" in2="BackgroundImageFix" result="effect1_dropShadow_2528_617"/>
<feBlend mode="normal" in="SourceGraphic" in2="effect1_dropShadow_2528_617" result="shape"/>
</filter>
<filter id="filter3_d_2528_617" x="1142.72" y="724.058" width="1130.21" height="587.336" filterUnits="userSpaceOnUse" color-interpolation-filters="sRGB">
<feFlood flood-opacity="0" result="BackgroundImageFix"/>
<feColorMatrix in="SourceAlpha" type="matrix" values="0 0 0 0 0 0 0 0 0 0 0 0 0 0 0 0 0 0 127 0" result="hardAlpha"/>
<feOffset/>
<feGaussianBlur stdDeviation="2"/>
<feComposite in2="hardAlpha" operator="out"/>
<feColorMatrix type="matrix" values="0 0 0 0 1 0 0 0 0 1 0 0 0 0 1 0 0 0 1 0"/>
<feBlend mode="normal" in2="BackgroundImageFix" result="effect1_dropShadow_2528_617"/>
<feBlend mode="normal" in="SourceGraphic" in2="effect1_dropShadow_2528_617" result="shape"/>
</filter>
<filter id="filter4_d_2528_617" x="83.3555" y="498.073" width="1133.82" height="872.302" filterUnits="userSpaceOnUse" color-interpolation-filters="sRGB">
<feFlood flood-opacity="0" result="BackgroundImageFix"/>
<feColorMatrix in="SourceAlpha" type="matrix" values="0 0 0 0 0 0 0 0 0 0 0 0 0 0 0 0 0 0 127 0" result="hardAlpha"/>
<feOffset/>
<feGaussianBlur stdDeviation="2"/>
<feComposite in2="hardAlpha" operator="out"/>
<feColorMatrix type="matrix" values="0 0 0 0 1 0 0 0 0 1 0 0 0 0 1 0 0 0 1 0"/>
<feBlend mode="normal" in2="BackgroundImageFix" result="effect1_dropShadow_2528_617"/>
<feBlend mode="normal" in="SourceGraphic" in2="effect1_dropShadow_2528_617" result="shape"/>
</filter>
</defs>
</svg>
